PathFileType	4	(X/Y/Z)	Patient4_TMGait_0pt4_01_right_35.trc.trc
DataRate	CameraRate	NumFrames	NumMarkers	Units	OrigDataRate	OrigDataStartFrame	OrigNumFrames
73.298429319372	73.298429319372	4	33	mm	73.298429319372	124	       141
Frame#	Time	Sacral			L.Shoulder			Chest			R.Shoulder			Neck			R.ASIS			L.ASIS			R.Thigh.Superior			R.Thigh.Lateral			R.Thigh.Inferior			R.Patella			L.Thigh.Superior			L.Thigh.Lateral			L.Thigh.Inferior			L.Patella			L.Shank.Superior			L.Shank.Lateral			L.Shank.Inferior			R.Shank.Superior			R.Shank.Lateral			R.Shank.Inferior			R.Heel			R.Midfoot.Superior			R.Midfoot.Lateral			R.Toe			L.Heel			L.Midfoot.Lateral			L.Midfoot.Superior			L.Toe			L.Elbow			L.Wrist			R.Elbow			R.Wrist			
		X1	Y1	Z1	X2	Y2	Z2	X3	Y3	Z3	X4	Y4	Z4	X5	Y5	Z5	X6	Y6	Z6	X7	Y7	Z7	X8	Y8	Z8	X9	Y9	Z9	X10	Y10	Z10	X11	Y11	Z11	X12	Y12	Z12	X13	Y13	Z13	X14	Y14	Z14	X15	Y15	Z15	X16	Y16	Z16	X17	Y17	Z17	X18	Y18	Z18	X19	Y19	Z19	X20	Y20	Z20	X21	Y21	Z21	X22	Y22	Z22	X23	Y23	Z23	X24	Y24	Z24	X25	Y25	Z25	X26	Y26	Z26	X27	Y27	Z27	X28	Y28	Z28	X29	Y29	Z29	X30	Y30	Z30	X31	Y31	Z31	X32	Y32	Z32	X33	Y33	Z33	

124	47.218071428571	809.350183231152	997.680146309234	441.871666337812	996.899981666393	1428.418519205605	265.742451752706	1081.611299389976	1365.587053637187	438.806541219192	976.671630149863	1438.441530980762	601.270600706740	961.748151918992	1492.224769794227	420.023205571758	1032.587772467238	942.616155654737	576.894010513309	1038.241789628461	961.712669712697	299.274138661409	1099.296358472790	754.102762576681	552.232052950075	1039.589116106094	635.358847077425	618.909540797132	1127.117132472350	592.698275876368	541.305821236366	1148.573325113930	508.303203564561	555.116609775551	1041.660680612867	733.148573590692	326.390012751368	926.370390591080	636.436300843120	262.018244487542	988.236413570374	543.939718527654	324.792439332715	974.986851929601	477.356722607556	332.851853477674	941.657955021758	410.857356720352	325.047233658994	839.505529867090	306.067831954526	274.498103712425	881.128136638823	189.596874932693	345.505271819790	1126.774201599855	419.003441858888	566.505952376828	1063.267852749304	310.928833501754	629.695377395823	1123.767715549411	219.303154396387	577.937544384301	1015.953448457667	43.680112186320	548.642445275654	1181.723881469194	103.977758779023	592.669125093077	1096.260493612031	38.939550318729	626.746436124649	1302.101847431863	58.759000495859	625.555399717122	744.947123193490	38.942853133739	392.537970159248	816.646293255730	34.899314315922	309.941163924746	900.635379145019	95.353110515640	334.852794876902	1028.785774483036	41.922032395115	303.347260446787	1037.653343766525	1085.920050667364	131.573599038715	1268.263079774051	962.955471493607	129.276366193676	861.829866550180	1111.755092762837	711.288468638385	890.677412193575	851.419817699293	715.969616487264	
125	47.231714285714	811.053966826266	996.449408938109	444.719065242189	996.373569568934	1427.898092495139	268.870170689308	1081.682007660681	1365.406654308717	441.746457614394	976.503405560541	1437.469787666735	604.448230334118	961.175416677094	1491.456315858090	423.143741126905	1034.855748557658	941.463928841421	579.071111085992	1039.573203088861	961.172442153308	301.672315887419	1102.066913255135	752.880086134175	553.541586785596	1040.822563125981	633.935883232178	619.127418144125	1128.753142246509	591.628283141630	541.947938165919	1148.765597333298	506.154424296791	555.012702985736	1042.390919194526	732.232689824048	327.855590887225	926.316749114066	636.027820084305	263.813005355863	987.912705760192	543.030716785759	326.255710116087	974.639307906482	475.926919000738	334.034907737562	940.074815763719	409.858588832712	326.245045581560	836.460002706679	306.483504132246	275.629871386321	876.777762979195	189.143656988835	345.970794217148	1125.599396129487	416.310475067173	566.151336818650	1060.128226196378	309.250519415591	629.364321262170	1118.143701558348	216.463667283798	576.889564058113	1006.383840238463	43.279065804842	547.788882279447	1172.934218011163	101.329737957726	591.530423315840	1086.501928838454	38.036516711996	626.173683712450	1292.919790395464	54.735213794218	624.932746715186	739.365491067228	39.028987303231	392.479762800383	811.134550748460	34.842247175547	309.989206842468	895.228123844226	95.326393549902	334.864485862124	1023.351720459875	41.700449865515	303.289047663103	1037.794963605388	1085.527345395102	134.266405582197	1267.288313762609	960.216430026394	131.353799944947	866.388276314397	1108.846214903643	714.843817314640	901.776993361845	849.307578276465	719.862805830470	
126	47.245357142857	812.829089032132	995.366784903658	447.729389596218	995.828792717574	1427.564872581371	272.151379600365	1081.801549047485	1365.383089851784	444.801289243602	976.468857207538	1436.646811162949	607.792753695731	960.635503942406	1490.865325449060	426.451096006956	1037.218220573477	940.552327096784	581.348111697330	1040.898742433665	960.773617328854	304.188219572901	1104.746321080193	751.810489595745	554.877162802812	1042.128826774352	632.852254530854	619.606746096848	1130.227319919666	590.715995006611	542.643050261120	1148.887429026748	504.250717426421	555.014368802500	1043.519037845290	731.482933171622	329.414735913855	926.876327543793	635.541384243660	265.763177049908	988.483823593563	542.136025933841	327.820319135724	975.246561516650	474.347546663895	335.252733972277	939.263669636510	408.744469736020	327.493323887286	833.938546569206	307.042340968969	276.870305558392	872.685452262923	188.730542815936	346.450144968520	1124.552514822623	414.011549957119	565.970417625872	1057.584746309363	307.847203818326	629.414790353359	1113.179787951834	214.062613386889	576.062398924262	997.830796596132	42.998116321297	547.336435975406	1165.050649352889	99.265333970371	590.530993745605	1077.902419232835	37.424676749434	625.864450461120	1284.803341629934	51.589213795782	624.284801223665	733.779243109731	39.405419563233	392.389009655697	805.631940677478	34.880245576241	310.037851391758	889.933127554605	95.327381746054	334.819895643083	1017.942911458137	41.417362468519	303.212121204704	1037.582664180602	1085.230780297135	137.178632534581	1265.579538906090	956.922907071268	133.442396031744	871.449574308306	1106.008717729814	718.600283443282	913.665033591705	847.438899913023	724.008830597863	
127	47.259000000000	814.632818795308	994.495244874081	450.883920372180	995.284984379559	1427.469633048837	275.553611017090	1081.970381385717	1365.547462154376	447.937637949209	976.586108132950	1436.028100251264	611.265610133768	960.136478955951	1490.495635200806	429.917419073296	1039.607267310792	939.940727525826	583.742244493699	1042.188572355932	960.561324031172	306.826102557612	1107.209342589740	750.936977053137	556.278001527527	1043.437755383055	632.136052830187	620.418181425340	1131.419210706219	589.975576781697	543.436227611004	1148.837962922459	502.648779329087	555.217928427529	1045.072812568644	730.958414758564	331.113344821906	928.154502006127	634.987979010783	267.859395967075	990.114771661152	541.289761413583	329.464503290386	976.966661966596	472.641700083418	336.446550196913	939.362680022276	407.543828354728	328.743662451076	832.056425915462	307.822105170662	278.193919795788	868.943216318172	188.441254588766	346.907191498264	1123.545871616935	412.151009844561	566.033423477112	1055.531504108879	306.734307403765	629.830837078934	1108.857938221234	212.149058282291	575.497493102658	990.380511202370	42.828890068078	547.199987601645	1158.120115012283	97.781725331200	589.711703739337	1070.499133704493	37.074755187766	625.777099706428	1277.778215732670	49.325514865579	623.713670028739	728.230625978030	40.248382161485	392.253966762173	800.163481990409	35.105334384008	310.076648777485	884.817852189700	95.383847642009	334.689039675389	1012.561331597720	41.070930300402	303.115334827307	1037.013913731865	1085.067794318576	140.336430064716	1263.074614750265	953.086920877216	135.559619475189	877.031144387152	1103.330444341641	722.538046165436	926.304154123689	845.927837988710	728.357317353402	
